<?xml version="1.0" encoding="UTF-8" standalone="no"?>
<!-- Created with Inkscape (http://www.inkscape.org/) -->

<svg
   xmlns:dc="http://purl.org/dc/elements/1.1/"
   xmlns:cc="http://creativecommons.org/ns#"
   xmlns:rdf="http://www.w3.org/1999/02/22-rdf-syntax-ns#"
   xmlns:svg="http://www.w3.org/2000/svg"
   xmlns="http://www.w3.org/2000/svg"
   xmlns:xlink="http://www.w3.org/1999/xlink"
   xmlns:sodipodi="http://sodipodi.sourceforge.net/DTD/sodipodi-0.dtd"
   xmlns:inkscape="http://www.inkscape.org/namespaces/inkscape"
   width="72.248894mm"
   height="72.248894mm"
   viewBox="0 0 256.00002 256.00002"
   id="svg2"
   version="1.1"
   inkscape:version="0.91 r13725"
   sodipodi:docname="biohazard.svg">
  <defs
     id="defs4">
    <path
       transform="matrix(10,0,0,-10,260,260)"
       id="p"
       d="M 2.8117,-1.046 A 3,3 0 0 1 0.5,2.958 l 0,1.5539 A 10.5,10.5 0 0 1 2,25.3078 l 0,0.5583 A 15,15 0 0 0 14.7975,8.5433 15,15 0 0 0 23.4007,-11.201 l -0.4835,0.2792 A 10.5,10.5 0 0 1 4.1574,-1.8229 Z m 3.4148,8.871 a 10,10 0 0 1 -12.453,0 9.5,9.5 0 0 0 -2.1756,2.7417 13.5,13.5 0 0 0 16.8042,0 A 10,10 0 0 0 6.2265,7.825 Z"
       inkscape:connector-curvature="0" />
    <path
       transform="matrix(10,0,0,-10,260,260)"
       id="p-6"
       d="M 2.8117,-1.046 A 3,3 0 0 1 0.5,2.958 l 0,1.5539 A 10.5,10.5 0 0 1 2,25.3078 l 0,0.5583 A 15,15 0 0 0 14.7975,8.5433 15,15 0 0 0 23.4007,-11.201 l -0.4835,0.2792 A 10.5,10.5 0 0 1 4.1574,-1.8229 Z m 3.4148,8.871 a 10,10 0 0 1 -12.453,0 9.5,9.5 0 0 0 -2.1756,2.7417 13.5,13.5 0 0 0 16.8042,0 A 10,10 0 0 0 6.2265,7.825 Z"
       inkscape:connector-curvature="0" />
  </defs>
  <sodipodi:namedview
     id="base"
     pagecolor="#ffffff"
     bordercolor="#666666"
     borderopacity="1.0"
     inkscape:pageopacity="0.0"
     inkscape:pageshadow="2"
     inkscape:zoom="1.979899"
     inkscape:cx="18.543763"
     inkscape:cy="57.699703"
     inkscape:document-units="px"
     inkscape:current-layer="layer1"
     showgrid="false"
     fit-margin-top="0"
     fit-margin-left="0"
     fit-margin-right="0"
     fit-margin-bottom="0"
     inkscape:window-width="1680"
     inkscape:window-height="987"
     inkscape:window-x="-8"
     inkscape:window-y="-8"
     inkscape:window-maximized="1" />
  <metadata
     id="metadata7">
    <rdf:RDF>
      <cc:Work
         rdf:about="">
        <dc:format>image/svg+xml</dc:format>
        <dc:type
           rdf:resource="http://purl.org/dc/dcmitype/StillImage" />
        <dc:title />
      </cc:Work>
    </rdf:RDF>
  </metadata>
  <g
     inkscape:label="Layer 1"
     inkscape:groupmode="layer"
     id="layer1"
     transform="translate(-64.790063,-45.988853)">
    <path
       inkscape:connector-curvature="0"
       d="M 319.8617,275.49249 198.72323,65.655722 c -1.23785,-2.134222 -3.50013,-3.414756 -5.93314,-3.414756 -2.43302,0 -4.69529,1.323218 -5.93314,3.414756 L 65.718473,275.49249 c -1.237849,2.13422 -1.237849,4.73797 0,6.82951 1.237849,2.13422 3.500125,3.41476 5.933139,3.41476 l 242.276948,0 c 2.43302,0 4.69529,-1.32322 5.93314,-3.41476 1.23785,-2.13422 1.23785,-4.73797 0,-6.82951 z"
       id="sign_border"
       style="fill:#02f54d;fill-opacity:1" />
    <path
       style="overflow:visible;fill:#000000;fill-opacity:1;stroke:none"
       d="M 128.04297 37.609375 L 126.46094 40.337891 L 126.46094 40.681641 C 126.46094 41.579527 126.58499 42.416198 126.83398 43.193359 C 127.09052 43.970522 127.38063 44.590519 127.70508 45.050781 C 127.88616 45.307321 128.12787 45.530119 128.42969 45.71875 C 128.85977 45.99038 129.34541 46.125 129.88867 46.125 C 130.84518 46.125 131.60605 45.65634 132.19141 44.765625 L 128.04297 37.609375 z M 125.56641 41.880859 L 113.81836 62.142578 L 116.44336 61.314453 L 116.44336 74.759766 L 119.70312 74.759766 C 119.92948 74.759766 120.09137 74.805938 120.18945 74.896484 C 120.28755 74.979484 120.33789 75.091022 120.33789 75.234375 C 120.33789 75.370195 120.28755 75.483679 120.18945 75.574219 C 120.09137 75.664765 119.92948 75.710938 119.70312 75.710938 L 112.23438 75.710938 C 112.00802 75.710938 111.84419 75.664765 111.74609 75.574219 C 111.64801 75.483679 111.59961 75.370195 111.59961 75.234375 C 111.59961 75.091022 111.64801 74.979484 111.74609 74.896484 C 111.84419 74.805938 112.00802 74.759766 112.23438 74.759766 L 115.49219 74.759766 L 115.49219 62.626953 L 113.10156 63.376953 L 92.535156 98.84375 C 92.522216 100.8497 92.040326 102.44498 91.080078 103.62109 C 90.50274 104.32991 89.80899 104.76598 89.001953 104.9375 L 74.748047 129.52148 L 74.748047 132.70703 L 78.007812 132.70703 C 78.234172 132.70703 78.396054 132.7532 78.494141 132.84375 C 78.592227 132.92675 78.642578 133.04024 78.642578 133.18359 C 78.642578 133.31941 78.592227 133.43094 78.494141 133.52148 C 78.396054 133.61203 78.234172 133.6582 78.007812 133.6582 L 72.349609 133.6582 L 63.228516 149.38867 C 63.448143 149.64613 63.679807 150.03409 63.927734 150.56641 C 64.184274 151.11721 64.373414 151.61955 64.494141 152.07227 C 64.660134 152.72117 64.744141 153.48413 64.744141 154.35938 L 64.744141 156.71289 C 64.744141 158.75766 64.256543 160.37621 63.283203 161.56836 C 62.52113 162.50397 61.558458 162.9707 60.396484 162.9707 C 59.838138 162.9707 59.310493 162.85917 58.8125 162.63281 C 58.32206 162.414 57.903721 162.10302 57.556641 161.70312 C 57.337827 161.45414 57.096118 161.05471 56.832031 160.50391 C 56.824056 160.48678 56.818384 160.47211 56.810547 160.45508 L 46.951172 177.45898 L 46.951172 190.6543 L 50.210938 190.6543 C 50.43729 190.6543 50.599172 190.70047 50.697266 190.79102 C 50.795352 190.87402 50.845703 190.98751 50.845703 191.13086 C 50.845703 191.26668 50.795352 191.38016 50.697266 191.4707 C 50.599172 191.56125 50.43729 191.60547 50.210938 191.60547 L 42.742188 191.60547 C 42.515828 191.60547 42.351993 191.56125 42.253906 191.4707 C 42.155813 191.38016 42.107422 191.26668 42.107422 191.13086 C 42.107422 190.98751 42.155813 190.87402 42.253906 190.79102 C 42.351993 190.70047 42.515828 190.6543 42.742188 190.6543 L 46.001953 190.6543 L 46.001953 179.0957 L 29.677734 207.24609 L 33.052734 206.18359 L 33.052734 219.62891 L 36.3125 219.62891 C 36.53886 219.62891 36.700735 219.67509 36.798828 219.76562 C 36.896915 219.84862 36.947266 219.96016 36.947266 220.10352 C 36.947266 220.23933 36.896915 220.35281 36.798828 220.44336 C 36.700735 220.5339 36.53886 220.58008 36.3125 220.58008 L 28.84375 220.58008 C 28.617391 220.58008 28.453557 220.5339 28.355469 220.44336 C 28.257381 220.35281 28.208984 220.23933 28.208984 220.10352 C 28.208984 219.96016 28.257381 219.84862 28.355469 219.76562 C 28.453557 219.67509 28.617391 219.62891 28.84375 219.62891 L 32.103516 219.62891 L 32.103516 207.49609 L 29.001953 208.46875 C 28.984879 208.47387 28.980853 208.47201 28.964844 208.47656 L 18.771484 226.05664 L 237.31445 226.05664 L 227.63086 209.35742 L 227.63086 219.62891 L 230.89062 219.62891 C 231.11698 219.62891 231.27887 219.67509 231.37695 219.76562 C 231.47505 219.84862 231.52344 219.96016 231.52344 220.10352 C 231.52344 220.23933 231.47505 220.35281 231.37695 220.44336 C 231.27887 220.5339 231.11698 220.58008 230.89062 220.58008 L 223.41992 220.58008 C 223.19357 220.58008 223.03169 220.5339 222.93359 220.44336 C 222.83551 220.35281 222.78711 220.23933 222.78711 220.10352 C 222.78711 219.96016 222.83551 219.84862 222.93359 219.76562 C 223.03169 219.67509 223.19357 219.62891 223.41992 219.62891 L 226.67969 219.62891 L 226.67969 207.7168 L 226.57227 207.5293 L 223.57812 208.46875 C 223.42724 208.51402 223.31791 208.53711 223.25 208.53711 C 223.13682 208.53711 223.03169 208.49289 222.93359 208.40234 C 222.84305 208.30426 222.79883 208.19077 222.79883 208.0625 C 222.79883 207.94932 222.83666 207.84417 222.91211 207.74609 C 222.97244 207.68576 223.0965 207.62067 223.28516 207.55273 L 226.07617 206.67383 L 216.47656 190.11914 C 216.37864 190.26546 216.27651 190.40763 216.16602 190.54297 C 215.40395 191.47858 214.44127 191.94531 213.2793 191.94531 C 212.72094 191.94531 212.1933 191.83182 211.69531 191.60547 C 211.20487 191.38666 210.78654 191.07763 210.43945 190.67773 C 210.22064 190.42874 209.97892 190.02932 209.71484 189.47852 C 209.4583 188.92771 209.27334 188.4212 209.16016 187.96094 C 208.98662 187.31204 208.90039 186.55521 208.90039 185.6875 L 208.90039 183.33203 C 208.90039 181.54882 209.26929 180.09096 210.00391 178.95703 L 200.60547 162.74805 C 200.22279 162.88193 199.82073 162.9707 199.38086 162.9707 C 198.82251 162.9707 198.29485 162.85917 197.79688 162.63281 C 197.30643 162.414 196.8881 162.10302 196.54102 161.70312 C 196.3222 161.45414 196.08049 161.05471 195.81641 160.50391 C 195.55986 159.9531 195.37489 159.44855 195.26172 158.98828 C 195.08818 158.33939 195.00195 157.5806 195.00195 156.71289 L 195.00195 154.35938 C 195.00195 153.9555 195.03659 153.58153 195.07422 153.21094 L 183.6543 133.51562 C 183.27297 133.30948 182.92744 133.05868 182.64258 132.73047 C 182.42376 132.48148 182.18206 132.08206 181.91797 131.53125 C 181.66144 130.98044 181.47646 130.47393 181.36328 130.01367 C 181.30895 129.81055 181.27748 129.57815 181.24023 129.35352 L 162.02148 96.207031 C 162.02261 96.277928 162.03125 96.337694 162.03125 96.410156 L 162.03125 98.765625 C 162.03125 100.81039 161.54561 102.42894 160.57227 103.62109 C 159.81019 104.55671 158.84752 105.02344 157.68555 105.02344 C 157.1272 105.02344 156.59955 104.90995 156.10156 104.68359 C 155.61112 104.46478 155.19278 104.15576 154.8457 103.75586 C 154.62689 103.50687 154.38518 103.10744 154.12109 102.55664 C 153.86455 102.00583 153.67959 101.49933 153.56641 101.03906 C 153.39287 100.39018 153.30664 99.633332 153.30664 98.765625 L 153.30664 96.410156 C 153.30664 94.357844 153.7923 92.737075 154.76562 91.544922 C 155.5277 90.609309 156.49037 90.140625 157.65234 90.140625 C 157.97221 90.140625 158.27665 90.187362 158.57227 90.259766 L 144.24023 65.542969 L 144.24023 74.759766 L 147.5 74.759766 C 147.72635 74.759766 147.88824 74.805938 147.98633 74.896484 C 148.08442 74.979484 148.13477 75.091022 148.13477 75.234375 C 148.13477 75.370195 148.08442 75.483679 147.98633 75.574219 C 147.88824 75.664765 147.72635 75.710938 147.5 75.710938 L 140.0293 75.710938 C 139.80294 75.710938 139.64106 75.664765 139.54297 75.574219 C 139.44488 75.483679 139.39648 75.370195 139.39648 75.234375 C 139.39648 75.091022 139.44488 74.979484 139.54297 74.896484 C 139.64106 74.805938 139.80294 74.759766 140.0293 74.759766 L 143.28906 74.759766 L 143.28906 63.902344 L 142.66406 62.824219 L 140.18945 63.599609 C 140.03855 63.644876 139.92923 63.667969 139.86133 63.667969 C 139.74815 63.667969 139.64106 63.62375 139.54297 63.533203 C 139.45242 63.43511 139.4082 63.321626 139.4082 63.193359 C 139.4082 63.080179 139.44603 62.97504 139.52148 62.876953 C 139.58182 62.81662 139.70587 62.751527 139.89453 62.683594 L 142.16797 61.966797 L 132.73828 45.708984 C 131.98178 46.616441 131.03302 47.076172 129.88867 47.076172 C 129.33032 47.076172 128.80267 46.962685 128.30469 46.736328 C 127.81425 46.517515 127.39591 46.208493 127.04883 45.808594 C 126.83001 45.5596 126.5883 45.16018 126.32422 44.609375 C 126.06768 44.05857 125.88271 43.552058 125.76953 43.091797 C 125.67164 42.725761 125.60893 42.316116 125.56641 41.880859 z M 129.85547 61.167969 C 130.42136 61.167969 130.94901 61.279506 131.43945 61.505859 C 131.92989 61.724673 132.34823 62.035647 132.69531 62.435547 C 132.92167 62.692087 133.16338 63.095678 133.41992 63.646484 C 133.67646 64.197284 133.86561 64.697671 133.98633 65.150391 C 134.15232 65.799284 134.23633 66.562247 134.23633 67.4375 L 134.23633 69.791016 C 134.23633 71.835781 133.74873 73.454332 132.77539 74.646484 C 132.01332 75.582098 131.05065 76.050781 129.88867 76.050781 C 129.33032 76.050781 128.80267 75.93729 128.30469 75.710938 C 127.81425 75.492124 127.39591 75.183103 127.04883 74.783203 C 126.83001 74.53421 126.5883 74.132838 126.32422 73.582031 C 126.06768 73.031225 125.88271 72.526666 125.76953 72.066406 C 125.59599 71.417513 125.50977 70.658721 125.50977 69.791016 L 125.50977 67.4375 C 125.50977 65.38518 125.99541 63.762466 126.96875 62.570312 C 127.73082 61.634707 128.6935 61.167969 129.85547 61.167969 z M 129.86719 62.128906 C 128.80331 62.128906 127.96885 62.673246 127.36523 63.759766 C 126.76161 64.846284 126.46094 66.113807 126.46094 67.5625 L 126.46094 69.65625 C 126.46094 70.554137 126.58499 71.390809 126.83398 72.167969 C 127.09052 72.945129 127.38063 73.563171 127.70508 74.023438 C 127.88616 74.279976 128.12787 74.50278 128.42969 74.691406 C 128.85977 74.96304 129.34541 75.099609 129.88867 75.099609 C 130.94501 75.099609 131.77529 74.55527 132.37891 73.46875 C 132.98253 72.37469 133.28516 71.104943 133.28516 69.65625 L 133.28516 67.5625 C 133.28516 66.664607 133.15692 65.83016 132.90039 65.060547 C 132.6514 64.28338 132.36769 63.665338 132.05078 63.205078 C 131.86215 62.940992 131.61821 62.714024 131.31641 62.525391 C 130.88633 62.261311 130.40291 62.128906 129.86719 62.128906 z M 115.95703 90.140625 C 116.52292 90.140625 117.05058 90.254109 117.54102 90.480469 C 118.03146 90.699275 118.4498 91.008297 118.79688 91.408203 C 119.02322 91.664736 119.26494 92.068334 119.52148 92.619141 C 119.77802 93.169947 119.96716 93.672287 120.08789 94.125 C 120.25389 94.7739 120.33789 95.53491 120.33789 96.410156 L 120.33789 98.765625 C 120.33789 100.81039 119.85029 102.42894 118.87695 103.62109 C 118.11488 104.55671 117.15221 105.02344 115.99023 105.02344 C 115.43189 105.02344 114.90424 104.90995 114.40625 104.68359 C 113.91581 104.46478 113.49747 104.15576 113.15039 103.75586 C 112.93158 103.50687 112.68987 103.10744 112.42578 102.55664 C 112.16924 102.00583 111.98427 101.49933 111.87109 101.03906 C 111.69755 100.39018 111.61133 99.633332 111.61133 98.765625 L 111.61133 96.410156 C 111.61133 94.357844 112.09697 92.737075 113.07031 91.544922 C 113.83239 90.609309 114.79506 90.140625 115.95703 90.140625 z M 102.54492 90.287109 L 102.54492 103.73438 L 105.80469 103.73438 C 106.03105 103.73438 106.19293 103.77859 106.29102 103.86914 C 106.3891 103.95213 106.43945 104.06562 106.43945 104.20898 C 106.43945 104.3448 106.3891 104.45828 106.29102 104.54883 C 106.19293 104.63937 106.03105 104.68359 105.80469 104.68359 L 98.335938 104.68359 C 98.109578 104.68359 97.945743 104.63937 97.847656 104.54883 C 97.74957 104.45828 97.701172 104.3448 97.701172 104.20898 C 97.701172 104.06562 97.74957 103.95213 97.847656 103.86914 C 97.945743 103.77859 98.109578 103.73437 98.335938 103.73438 L 101.59375 103.73438 L 101.59375 91.601562 L 98.494141 92.574219 C 98.343234 92.619485 98.233922 92.642578 98.166016 92.642578 C 98.052836 92.642578 97.945743 92.596406 97.847656 92.505859 C 97.757116 92.407773 97.712891 92.294289 97.712891 92.166016 C 97.712891 92.052836 97.750725 91.947689 97.826172 91.849609 C 97.886505 91.789209 98.010559 91.726076 98.199219 91.658203 L 102.54492 90.287109 z M 130.3418 90.287109 L 130.3418 103.73438 L 133.60156 103.73438 C 133.82792 103.73438 133.9898 103.77859 134.08789 103.86914 C 134.18597 103.95213 134.23633 104.06562 134.23633 104.20898 C 134.23633 104.3448 134.18597 104.45828 134.08789 104.54883 C 133.9898 104.63937 133.82792 104.68359 133.60156 104.68359 L 126.13086 104.68359 C 125.9045 104.68359 125.74262 104.63937 125.64453 104.54883 C 125.54644 104.45828 125.49805 104.3448 125.49805 104.20898 C 125.49805 104.06562 125.54644 103.95213 125.64453 103.86914 C 125.74262 103.77859 125.9045 103.73437 126.13086 103.73438 L 129.39062 103.73438 L 129.39062 91.601562 L 126.29102 92.574219 C 126.14011 92.619485 126.0308 92.642578 125.96289 92.642578 C 125.84971 92.642578 125.74262 92.596406 125.64453 92.505859 C 125.55398 92.407773 125.50977 92.294289 125.50977 92.166016 C 125.50977 92.052836 125.54759 91.947689 125.62305 91.849609 C 125.68338 91.789209 125.80743 91.726076 125.99609 91.658203 L 130.3418 90.287109 z M 144.24023 90.287109 L 144.24023 103.73438 L 147.5 103.73438 C 147.72635 103.73438 147.88824 103.77859 147.98633 103.86914 C 148.08442 103.95213 148.13477 104.06562 148.13477 104.20898 C 148.13477 104.3448 148.08442 104.45828 147.98633 104.54883 C 147.88824 104.63937 147.72635 104.68359 147.5 104.68359 L 140.0293 104.68359 C 139.80294 104.68359 139.64106 104.63937 139.54297 104.54883 C 139.44488 104.45828 139.39648 104.3448 139.39648 104.20898 C 139.39648 104.06562 139.44488 103.95213 139.54297 103.86914 C 139.64106 103.77859 139.80294 103.73437 140.0293 103.73438 L 143.28906 103.73438 L 143.28906 91.601562 L 140.18945 92.574219 C 140.03855 92.619485 139.92923 92.642578 139.86133 92.642578 C 139.74815 92.642578 139.64106 92.596406 139.54297 92.505859 C 139.45242 92.407773 139.4082 92.294289 139.4082 92.166016 C 139.4082 92.052836 139.44603 91.947689 139.52148 91.849609 C 139.58182 91.789209 139.70587 91.726076 139.89453 91.658203 L 144.24023 90.287109 z M 115.96875 91.103516 C 114.90487 91.103516 114.07042 91.645902 113.4668 92.732422 C 112.86317 93.818942 112.5625 95.086464 112.5625 96.535156 L 112.5625 98.628906 C 112.5625 99.526793 112.68655 100.36542 112.93555 101.14258 C 113.19209 101.91974 113.48219 102.53779 113.80664 102.99805 C 113.98773 103.25459 114.22944 103.47738 114.53125 103.66602 C 114.96133 103.93765 115.44697 104.07227 115.99023 104.07227 C 117.04657 104.07227 117.87684 103.52988 118.48047 102.44336 C 119.08409 101.34929 119.38672 100.0776 119.38672 98.628906 L 119.38672 96.535156 C 119.38672 95.63727 119.25849 94.804776 119.00195 94.035156 C 118.75296 93.257996 118.46924 92.638001 118.15234 92.177734 C 117.96371 91.913654 117.71978 91.688633 117.41797 91.5 C 116.98789 91.235913 116.50447 91.103516 115.96875 91.103516 z M 157.66406 91.103516 C 156.60018 91.103516 155.76573 91.645902 155.16211 92.732422 C 154.55849 93.818942 154.25586 95.086464 154.25586 96.535156 L 154.25586 98.628906 C 154.25586 99.526793 154.38187 100.36542 154.63086 101.14258 C 154.8874 101.91974 155.17751 102.53779 155.50195 102.99805 C 155.68304 103.25459 155.92475 103.47738 156.22656 103.66602 C 156.65664 103.93765 157.14229 104.07227 157.68555 104.07227 C 158.74189 104.07227 159.57216 103.52988 160.17578 102.44336 C 160.77941 101.34929 161.08203 100.0776 161.08203 98.628906 L 161.08203 96.535156 C 161.08203 95.63727 160.95381 94.804776 160.69727 94.035156 C 160.65892 93.915489 160.6142 93.825096 160.57422 93.712891 L 159.43164 91.744141 C 159.33072 91.658994 159.22946 91.573836 159.11133 91.5 C 158.68125 91.235913 158.19978 91.103516 157.66406 91.103516 z M 91.234375 101.08789 L 89.845703 103.48242 C 90.160388 103.22166 90.441681 102.8788 90.683594 102.44336 C 90.916831 102.02062 91.091111 101.56363 91.234375 101.08789 z M 88.160156 119.11523 C 88.726049 119.11523 89.253701 119.22872 89.744141 119.45508 C 90.234581 119.67389 90.654867 119.98291 91.001953 120.38281 C 91.228313 120.63935 91.468076 121.04294 91.724609 121.59375 C 91.981149 122.14455 92.170289 122.64494 92.291016 123.09766 C 92.457009 123.74655 92.541016 124.50951 92.541016 125.38477 L 92.541016 127.73828 C 92.541016 129.78305 92.053418 131.4016 91.080078 132.59375 C 90.318005 133.52936 89.355326 133.99805 88.193359 133.99805 C 87.635006 133.99805 87.107362 133.88456 86.609375 133.6582 C 86.118928 133.43939 85.700596 133.13037 85.353516 132.73047 C 85.134702 132.48148 84.892986 132.08206 84.628906 131.53125 C 84.37236 130.98044 84.187392 130.47393 84.074219 130.01367 C 83.900679 129.36478 83.814453 128.60599 83.814453 127.73828 L 83.814453 125.38477 C 83.814453 123.33245 84.300098 121.70973 85.273438 120.51758 C 86.035503 119.58197 86.998176 119.11523 88.160156 119.11523 z M 102.05859 119.11523 C 102.62449 119.11523 103.15213 119.22872 103.64258 119.45508 C 104.13302 119.67389 104.55331 119.98291 104.90039 120.38281 C 105.12675 120.63935 105.36651 121.04294 105.62305 121.59375 C 105.87959 122.14455 106.06873 122.64494 106.18945 123.09766 C 106.35545 123.74655 106.43945 124.50951 106.43945 125.38477 L 106.43945 127.73828 C 106.43945 129.78305 105.95186 131.4016 104.97852 132.59375 C 104.21645 133.52936 103.25377 133.99805 102.0918 133.99805 C 101.53344 133.99805 101.0058 133.88456 100.50781 133.6582 C 100.01737 133.43939 99.59904 133.13037 99.251953 132.73047 C 99.03314 132.48148 98.791424 132.08206 98.527344 131.53125 C 98.270804 130.98044 98.085836 130.47393 97.972656 130.01367 C 97.799116 129.36478 97.712891 128.60599 97.712891 127.73828 L 97.712891 125.38477 C 97.712891 123.33245 98.198535 121.70973 99.171875 120.51758 C 99.933948 119.58197 100.89663 119.11523 102.05859 119.11523 z M 129.85547 119.11523 C 130.42136 119.11523 130.94901 119.22872 131.43945 119.45508 C 131.92989 119.67389 132.34823 119.98291 132.69531 120.38281 C 132.92167 120.63935 133.16338 121.04294 133.41992 121.59375 C 133.67646 122.14455 133.86561 122.64494 133.98633 123.09766 C 134.15232 123.74655 134.23633 124.50951 134.23633 125.38477 L 134.23633 127.73828 C 134.23633 129.78305 133.74873 131.4016 132.77539 132.59375 C 132.01332 133.52936 131.05065 133.99805 129.88867 133.99805 C 129.33032 133.99805 128.80267 133.88456 128.30469 133.6582 C 127.81425 133.43939 127.39591 133.13037 127.04883 132.73047 C 126.83001 132.48148 126.5883 132.08206 126.32422 131.53125 C 126.06768 130.98044 125.88271 130.47393 125.76953 130.01367 C 125.59599 129.36478 125.50977 128.60599 125.50977 127.73828 L 125.50977 125.38477 C 125.50977 123.33245 125.99541 121.70973 126.96875 120.51758 C 127.73082 119.58197 128.6935 119.11523 129.85547 119.11523 z M 157.65234 119.11523 C 158.21824 119.11523 158.74588 119.22872 159.23633 119.45508 C 159.72677 119.67389 160.14511 119.98291 160.49219 120.38281 C 160.71855 120.63935 160.96026 121.04294 161.2168 121.59375 C 161.47334 122.14455 161.66248 122.64494 161.7832 123.09766 C 161.9492 123.74655 162.03125 124.50951 162.03125 125.38477 L 162.03125 127.73828 C 162.03125 129.78305 161.54561 131.4016 160.57227 132.59375 C 159.81019 133.52936 158.84752 133.99805 157.68555 133.99805 C 157.1272 133.99805 156.59955 133.88456 156.10156 133.6582 C 155.61112 133.43939 155.19278 133.13037 154.8457 132.73047 C 154.62689 132.48148 154.38518 132.08206 154.12109 131.53125 C 153.86455 130.98044 153.67959 130.47393 153.56641 130.01367 C 153.39287 129.36478 153.30664 128.60599 153.30664 127.73828 L 153.30664 125.38477 C 153.30664 123.33245 153.7923 121.70973 154.76562 120.51758 C 155.5277 119.58197 156.49037 119.11523 157.65234 119.11523 z M 116.44336 119.26172 L 116.44336 132.70703 L 119.70312 132.70703 C 119.92948 132.70703 120.09137 132.7532 120.18945 132.84375 C 120.28755 132.92675 120.33789 133.04024 120.33789 133.18359 C 120.33789 133.31941 120.28755 133.43094 120.18945 133.52148 C 120.09137 133.61203 119.92948 133.6582 119.70312 133.6582 L 112.23438 133.6582 C 112.00802 133.6582 111.84419 133.61203 111.74609 133.52148 C 111.64801 133.43094 111.59961 133.31941 111.59961 133.18359 C 111.59961 133.04024 111.64801 132.92675 111.74609 132.84375 C 111.84419 132.7532 112.00802 132.70703 112.23438 132.70703 L 115.49219 132.70703 L 115.49219 120.57422 L 112.39258 121.54883 C 112.24168 121.59409 112.13236 121.61523 112.06445 121.61523 C 111.95127 121.61523 111.84419 121.57102 111.74609 121.48047 C 111.65555 121.38238 111.61133 121.26889 111.61133 121.14062 C 111.61133 121.02746 111.64916 120.92231 111.72461 120.82422 C 111.78494 120.76389 111.909 120.69879 112.09766 120.63086 L 116.44336 119.26172 z M 144.24023 119.26172 L 144.24023 132.70703 L 147.5 132.70703 C 147.72635 132.70703 147.88824 132.7532 147.98633 132.84375 C 148.08442 132.92675 148.13477 133.04024 148.13477 133.18359 C 148.13477 133.31941 148.08442 133.43094 147.98633 133.52148 C 147.88824 133.61203 147.72635 133.6582 147.5 133.6582 L 140.0293 133.6582 C 139.80294 133.6582 139.64106 133.61203 139.54297 133.52148 C 139.44488 133.43094 139.39648 133.31941 139.39648 133.18359 C 139.39648 133.04024 139.44488 132.92675 139.54297 132.84375 C 139.64106 132.7532 139.80294 132.70703 140.0293 132.70703 L 143.28906 132.70703 L 143.28906 120.57422 L 140.18945 121.54883 C 140.03855 121.59409 139.92923 121.61523 139.86133 121.61523 C 139.74815 121.61523 139.64106 121.57102 139.54297 121.48047 C 139.45242 121.38238 139.4082 121.26889 139.4082 121.14062 C 139.4082 121.02746 139.44603 120.92231 139.52148 120.82422 C 139.58182 120.76389 139.70587 120.69879 139.89453 120.63086 L 144.24023 119.26172 z M 172.03711 119.26172 L 172.03711 132.70703 L 175.29688 132.70703 C 175.52322 132.70703 175.68512 132.7532 175.7832 132.84375 C 175.88129 132.92675 175.92969 133.04024 175.92969 133.18359 C 175.92969 133.31941 175.88129 133.43094 175.7832 133.52148 C 175.68512 133.61203 175.52322 133.6582 175.29688 133.6582 L 167.82617 133.6582 C 167.59981 133.6582 167.43793 133.61203 167.33984 133.52148 C 167.24175 133.43094 167.19336 133.31941 167.19336 133.18359 C 167.19336 133.04024 167.24175 132.92675 167.33984 132.84375 C 167.43793 132.7532 167.59981 132.70703 167.82617 132.70703 L 171.08594 132.70703 L 171.08594 120.57422 L 167.98633 121.54883 C 167.83542 121.59409 167.72416 121.61523 167.65625 121.61523 C 167.54307 121.61523 167.43793 121.57102 167.33984 121.48047 C 167.2493 121.38238 167.20508 121.26889 167.20508 121.14062 C 167.20508 121.02746 167.24291 120.92231 167.31836 120.82422 C 167.37876 120.76389 167.50281 120.69879 167.69141 120.63086 L 172.03711 119.26172 z M 88.171875 120.07617 C 87.107995 120.07617 86.273548 120.62051 85.669922 121.70703 C 85.066302 122.79355 84.765625 124.06107 84.765625 125.50977 L 84.765625 127.60352 C 84.765625 128.5014 84.889679 129.33807 85.138672 130.11523 C 85.395212 130.89239 85.685319 131.51239 86.009766 131.97266 C 86.190852 132.2292 86.432562 132.45005 86.734375 132.63867 C 87.164455 132.91031 87.650099 133.04688 88.193359 133.04688 C 89.249693 133.04688 90.079974 132.50449 90.683594 131.41797 C 91.28722 130.32391 91.589844 129.05221 91.589844 127.60352 L 91.589844 125.50977 C 91.589844 124.61187 91.461618 123.77743 91.205078 123.00781 C 90.956085 122.23065 90.672369 121.6126 90.355469 121.15234 C 90.166835 120.88826 89.922907 120.66129 89.621094 120.47266 C 89.191014 120.20858 88.707588 120.07617 88.171875 120.07617 z M 102.07031 120.07617 C 101.00643 120.07617 100.17198 120.62051 99.568359 121.70703 C 98.964733 122.79355 98.664062 124.06107 98.664062 125.50977 L 98.664062 127.60352 C 98.664062 128.5014 98.788116 129.33807 99.037109 130.11523 C 99.293649 130.89239 99.583757 131.51239 99.908203 131.97266 C 100.08929 132.2292 100.331 132.45005 100.63281 132.63867 C 101.06289 132.91031 101.54854 133.04688 102.0918 133.04688 C 103.14814 133.04688 103.97841 132.50449 104.58203 131.41797 C 105.18565 130.32391 105.48828 129.05221 105.48828 127.60352 L 105.48828 125.50977 C 105.48828 124.61187 105.36006 123.77743 105.10352 123.00781 C 104.85452 122.23065 104.57081 121.6126 104.25391 121.15234 C 104.06527 120.88826 103.82134 120.66129 103.51953 120.47266 C 103.08945 120.20858 102.60603 120.07617 102.07031 120.07617 z M 129.86719 120.07617 C 128.80331 120.07617 127.96885 120.62051 127.36523 121.70703 C 126.76161 122.79355 126.46094 124.06107 126.46094 125.50977 L 126.46094 127.60352 C 126.46094 128.5014 126.58499 129.33807 126.83398 130.11523 C 127.09052 130.89239 127.38063 131.51239 127.70508 131.97266 C 127.88616 132.2292 128.12787 132.45005 128.42969 132.63867 C 128.85977 132.91031 129.34541 133.04688 129.88867 133.04688 C 130.94501 133.04688 131.77529 132.50449 132.37891 131.41797 C 132.98253 130.32391 133.28516 129.05221 133.28516 127.60352 L 133.28516 125.50977 C 133.28516 124.61187 133.15692 123.77743 132.90039 123.00781 C 132.6514 122.23065 132.36769 121.6126 132.05078 121.15234 C 131.86215 120.88826 131.61821 120.66129 131.31641 120.47266 C 130.88633 120.20858 130.40291 120.07617 129.86719 120.07617 z M 157.66406 120.07617 C 156.60018 120.07617 155.76573 120.62051 155.16211 121.70703 C 154.55849 122.79355 154.25586 124.06107 154.25586 125.50977 L 154.25586 127.60352 C 154.25586 128.5014 154.38187 129.33807 154.63086 130.11523 C 154.8874 130.89239 155.17751 131.51239 155.50195 131.97266 C 155.68304 132.2292 155.92475 132.45005 156.22656 132.63867 C 156.65664 132.91031 157.14229 133.04688 157.68555 133.04688 C 158.74189 133.04688 159.57216 132.50449 160.17578 131.41797 C 160.77941 130.32391 161.08203 129.05221 161.08203 127.60352 L 161.08203 125.50977 C 161.08203 124.61187 160.95381 123.77743 160.69727 123.00781 C 160.44827 122.23065 160.16456 121.6126 159.84766 121.15234 C 159.65902 120.88826 159.41313 120.66129 159.11133 120.47266 C 158.68125 120.20858 158.19978 120.07617 157.66406 120.07617 z M 73.796875 131.16016 L 72.900391 132.70703 L 73.796875 132.70703 L 73.796875 131.16016 z M 102.05859 148.08789 C 102.62449 148.08789 103.15213 148.20137 103.64258 148.42773 C 104.13302 148.64654 104.55331 148.95556 104.90039 149.35547 C 105.12675 149.612 105.36651 150.0156 105.62305 150.56641 C 105.87959 151.11721 106.06873 151.61955 106.18945 152.07227 C 106.35545 152.72117 106.43945 153.48413 106.43945 154.35938 L 106.43945 156.71289 C 106.43945 158.75766 105.95186 160.37621 104.97852 161.56836 C 104.21645 162.50397 103.25377 162.9707 102.0918 162.9707 C 101.53344 162.9707 101.0058 162.85917 100.50781 162.63281 C 100.01737 162.414 99.59904 162.10302 99.251953 161.70312 C 99.03314 161.45414 98.791424 161.05471 98.527344 160.50391 C 98.270804 159.9531 98.085836 159.44855 97.972656 158.98828 C 97.799116 158.33939 97.712891 157.5806 97.712891 156.71289 L 97.712891 154.35938 C 97.712891 152.30706 98.198535 150.68434 99.171875 149.49219 C 99.933948 148.55657 100.89663 148.08789 102.05859 148.08789 z M 143.75391 148.08789 C 144.3198 148.08789 144.84745 148.20137 145.33789 148.42773 C 145.82834 148.64654 146.24667 148.95556 146.59375 149.35547 C 146.82011 149.612 147.06182 150.0156 147.31836 150.56641 C 147.5749 151.11721 147.76405 151.61955 147.88477 152.07227 C 148.05077 152.72117 148.13477 153.48413 148.13477 154.35938 L 148.13477 156.71289 C 148.13477 158.75766 147.64717 160.37621 146.67383 161.56836 C 145.91175 162.50397 144.94908 162.9707 143.78711 162.9707 C 143.22876 162.9707 142.70112 162.85917 142.20312 162.63281 C 141.7127 162.414 141.29435 162.10302 140.94727 161.70312 C 140.72845 161.45414 140.48674 161.05471 140.22266 160.50391 C 139.96612 159.9531 139.78115 159.44855 139.66797 158.98828 C 139.49443 158.33939 139.4082 157.5806 139.4082 156.71289 L 139.4082 154.35938 C 139.4082 152.30706 139.89385 150.68434 140.86719 149.49219 C 141.62926 148.55657 142.59193 148.08789 143.75391 148.08789 z M 171.55078 148.08789 C 172.11667 148.08789 172.64432 148.20137 173.13477 148.42773 C 173.62521 148.64654 174.04355 148.95556 174.39062 149.35547 C 174.61698 149.612 174.85869 150.0156 175.11523 150.56641 C 175.37177 151.11721 175.56091 151.61955 175.68164 152.07227 C 175.84763 152.72117 175.92969 153.48413 175.92969 154.35938 L 175.92969 156.71289 C 175.92969 158.75766 175.44404 160.37621 174.4707 161.56836 C 173.70863 162.50397 172.74596 162.9707 171.58398 162.9707 C 171.02564 162.9707 170.49799 162.85917 170 162.63281 C 169.50956 162.414 169.09122 162.10302 168.74414 161.70312 C 168.52533 161.45414 168.28361 161.05471 168.01953 160.50391 C 167.76298 159.9531 167.57802 159.44855 167.46484 158.98828 C 167.29131 158.33939 167.20508 157.5806 167.20508 156.71289 L 167.20508 154.35938 C 167.20508 152.30706 167.69072 150.68434 168.66406 149.49219 C 169.42613 148.55657 170.38881 148.08789 171.55078 148.08789 z M 74.748047 148.23633 L 74.748047 161.68164 L 78.007812 161.68164 C 78.234172 161.68164 78.396054 161.72586 78.494141 161.81641 C 78.592227 161.8994 78.642578 162.01289 78.642578 162.15625 C 78.642578 162.29206 78.592227 162.40555 78.494141 162.49609 C 78.396054 162.58663 78.234172 162.63281 78.007812 162.63281 L 70.539062 162.63281 C 70.312704 162.63281 70.148868 162.58663 70.050781 162.49609 C 69.952695 162.40555 69.904297 162.29206 69.904297 162.15625 C 69.904297 162.01289 69.952695 161.8994 70.050781 161.81641 C 70.148868 161.72586 70.312704 161.68164 70.539062 161.68164 L 73.796875 161.68164 L 73.796875 149.54883 L 70.697266 150.52148 C 70.546359 150.56675 70.437047 150.58984 70.369141 150.58984 C 70.255961 150.58984 70.148868 150.54367 70.050781 150.45312 C 69.960235 150.35505 69.916016 150.24351 69.916016 150.11523 C 69.916016 150.00205 69.953844 149.89494 70.029297 149.79688 C 70.089697 149.73648 70.21375 149.67334 70.402344 149.60547 L 74.748047 148.23633 z M 88.646484 148.23633 L 88.646484 161.68164 L 91.90625 161.68164 C 92.13261 161.68164 92.294491 161.72586 92.392578 161.81641 C 92.490665 161.8994 92.541016 162.01289 92.541016 162.15625 C 92.541016 162.29206 92.490665 162.40555 92.392578 162.49609 C 92.294491 162.58663 92.13261 162.63281 91.90625 162.63281 L 84.4375 162.63281 C 84.211147 162.63281 84.047312 162.58663 83.949219 162.49609 C 83.851132 162.40555 83.802734 162.29206 83.802734 162.15625 C 83.802734 162.01289 83.851132 161.8994 83.949219 161.81641 C 84.047312 161.72586 84.211147 161.68164 84.4375 161.68164 L 87.695312 161.68164 L 87.695312 149.54883 L 84.595703 150.52148 C 84.444803 150.56675 84.335491 150.58984 84.267578 150.58984 C 84.154405 150.58984 84.047312 150.54367 83.949219 150.45312 C 83.858679 150.35505 83.814453 150.24351 83.814453 150.11523 C 83.814453 150.00205 83.852281 149.89494 83.927734 149.79688 C 83.988068 149.73648 84.112121 149.67334 84.300781 149.60547 L 88.646484 148.23633 z M 116.44336 148.23633 L 116.44336 161.68164 L 119.70312 161.68164 C 119.92948 161.68164 120.09137 161.72586 120.18945 161.81641 C 120.28755 161.8994 120.33789 162.01289 120.33789 162.15625 C 120.33789 162.29206 120.28755 162.40555 120.18945 162.49609 C 120.09137 162.58663 119.92948 162.63281 119.70312 162.63281 L 112.23438 162.63281 C 112.00802 162.63281 111.84419 162.58663 111.74609 162.49609 C 111.64801 162.40555 111.59961 162.29206 111.59961 162.15625 C 111.59961 162.01289 111.64801 161.8994 111.74609 161.81641 C 111.84419 161.72586 112.00802 161.68164 112.23438 161.68164 L 115.49219 161.68164 L 115.49219 149.54883 L 112.39258 150.52148 C 112.24168 150.56675 112.13236 150.58984 112.06445 150.58984 C 111.95127 150.58984 111.84419 150.54367 111.74609 150.45312 C 111.65555 150.35505 111.61133 150.24351 111.61133 150.11523 C 111.61133 150.00205 111.64916 149.89494 111.72461 149.79688 C 111.78494 149.73648 111.909 149.67334 112.09766 149.60547 L 116.44336 148.23633 z M 130.3418 148.23633 L 130.3418 161.68164 L 133.60156 161.68164 C 133.82792 161.68164 133.9898 161.72586 134.08789 161.81641 C 134.18597 161.8994 134.23633 162.01289 134.23633 162.15625 C 134.23633 162.29206 134.18597 162.40555 134.08789 162.49609 C 133.9898 162.58663 133.82792 162.63281 133.60156 162.63281 L 126.13086 162.63281 C 125.9045 162.63281 125.74262 162.58663 125.64453 162.49609 C 125.54644 162.40555 125.49805 162.29206 125.49805 162.15625 C 125.49805 162.01289 125.54644 161.8994 125.64453 161.81641 C 125.74262 161.72586 125.9045 161.68164 126.13086 161.68164 L 129.39062 161.68164 L 129.39062 149.54883 L 126.29102 150.52148 C 126.14011 150.56675 126.0308 150.58984 125.96289 150.58984 C 125.84971 150.58984 125.74262 150.54367 125.64453 150.45312 C 125.55398 150.35505 125.50977 150.24351 125.50977 150.11523 C 125.50977 150.00205 125.54759 149.89494 125.62305 149.79688 C 125.68338 149.73648 125.80743 149.67334 125.99609 149.60547 L 130.3418 148.23633 z M 158.13867 148.23633 L 158.13867 161.68164 L 161.39844 161.68164 C 161.6248 161.68164 161.78667 161.72586 161.88477 161.81641 C 161.98285 161.8994 162.03125 162.01289 162.03125 162.15625 C 162.03125 162.29206 161.98285 162.40555 161.88477 162.49609 C 161.78667 162.58663 161.6248 162.63281 161.39844 162.63281 L 153.92773 162.63281 C 153.70137 162.63281 153.53949 162.58663 153.44141 162.49609 C 153.34331 162.40555 153.29492 162.29206 153.29492 162.15625 C 153.29492 162.01289 153.34331 161.8994 153.44141 161.81641 C 153.53949 161.72586 153.70137 161.68164 153.92773 161.68164 L 157.1875 161.68164 L 157.1875 149.54883 L 154.08789 150.52148 C 153.93698 150.56675 153.82767 150.58984 153.75977 150.58984 C 153.64659 150.58984 153.53949 150.54367 153.44141 150.45312 C 153.35086 150.35505 153.30664 150.24351 153.30664 150.11523 C 153.30664 150.00205 153.34447 149.89494 153.41992 149.79688 C 153.48026 149.73648 153.60431 149.67334 153.79297 149.60547 L 158.13867 148.23633 z M 185.93555 148.23633 L 185.93555 161.68164 L 189.19531 161.68164 C 189.42167 161.68164 189.58355 161.72586 189.68164 161.81641 C 189.77973 161.8994 189.82813 162.01289 189.82812 162.15625 C 189.82812 162.29206 189.77973 162.40555 189.68164 162.49609 C 189.58355 162.58663 189.42167 162.63281 189.19531 162.63281 L 181.72461 162.63281 C 181.49825 162.63281 181.33637 162.58663 181.23828 162.49609 C 181.14019 162.40555 181.0918 162.29206 181.0918 162.15625 C 181.0918 162.01289 181.14019 161.8994 181.23828 161.81641 C 181.33637 161.72586 181.49825 161.68164 181.72461 161.68164 L 184.98438 161.68164 L 184.98438 149.54883 L 181.88477 150.52148 C 181.73386 150.56675 181.62259 150.58984 181.55469 150.58984 C 181.44151 150.58984 181.33637 150.54367 181.23828 150.45312 C 181.14773 150.35505 181.10352 150.24351 181.10352 150.11523 C 181.10352 150.00205 181.14134 149.89494 181.2168 149.79688 C 181.2772 149.73648 181.40125 149.67334 181.58984 149.60547 L 185.93555 148.23633 z M 102.07031 149.05078 C 101.00643 149.05078 100.17198 149.59317 99.568359 150.67969 C 98.964733 151.76621 98.664062 153.03373 98.664062 154.48242 L 98.664062 156.57617 C 98.664062 157.47406 98.788116 158.31268 99.037109 159.08984 C 99.293649 159.86701 99.583757 160.48505 99.908203 160.94531 C 100.08929 161.20185 100.331 161.42465 100.63281 161.61328 C 101.06289 161.88491 101.54854 162.02148 102.0918 162.02148 C 103.14814 162.02148 103.97841 161.47714 104.58203 160.39062 C 105.18565 159.29657 105.48828 158.02486 105.48828 156.57617 L 105.48828 154.48242 C 105.48828 153.58454 105.36006 152.75204 105.10352 151.98242 C 104.85452 151.20526 104.57081 150.58527 104.25391 150.125 C 104.06527 149.86092 103.82134 149.6359 103.51953 149.44727 C 103.08945 149.18318 102.60603 149.05078 102.07031 149.05078 z M 143.76562 149.05078 C 142.70175 149.05078 141.86729 149.59317 141.26367 150.67969 C 140.66005 151.76621 140.35938 153.03373 140.35938 154.48242 L 140.35938 156.57617 C 140.35937 157.47406 140.48342 158.31268 140.73242 159.08984 C 140.98896 159.86701 141.27906 160.48505 141.60352 160.94531 C 141.7846 161.20185 142.02633 161.42465 142.32812 161.61328 C 142.7582 161.88491 143.24385 162.02148 143.78711 162.02148 C 144.84345 162.02148 145.67372 161.47714 146.27734 160.39062 C 146.88096 159.29657 147.18359 158.02486 147.18359 156.57617 L 147.18359 154.48242 C 147.18359 153.58454 147.05537 152.75204 146.79883 151.98242 C 146.54983 151.20526 146.26612 150.58527 145.94922 150.125 C 145.76059 149.86092 145.5147 149.6359 145.21289 149.44727 C 144.78281 149.18318 144.30134 149.05078 143.76562 149.05078 z M 171.5625 149.05078 C 170.49861 149.05078 169.66417 149.59317 169.06055 150.67969 C 168.45693 151.76621 168.1543 153.03373 168.1543 154.48242 L 168.1543 156.57617 C 168.1543 157.47406 168.2803 158.31268 168.5293 159.08984 C 168.78584 159.86701 169.07594 160.48505 169.40039 160.94531 C 169.58148 161.20185 169.82319 161.42465 170.125 161.61328 C 170.55509 161.88491 171.04073 162.02148 171.58398 162.02148 C 172.64032 162.02148 173.4706 161.47714 174.07422 160.39062 C 174.67784 159.29657 174.98047 158.02486 174.98047 156.57617 L 174.98047 154.48242 C 174.98047 153.58454 174.85224 152.75204 174.5957 151.98242 C 174.34671 151.20526 174.06299 150.58527 173.74609 150.125 C 173.55746 149.86092 173.31158 149.6359 173.00977 149.44727 C 172.57969 149.18318 172.09821 149.05078 171.5625 149.05078 z M 62.677734 150.33789 L 57.447266 159.35742 C 57.678493 159.99971 57.929941 160.54392 58.212891 160.94531 C 58.393977 161.20185 58.635693 161.42465 58.9375 161.61328 C 59.36758 161.88491 59.853224 162.02148 60.396484 162.02148 C 61.452824 162.02148 62.283099 161.47714 62.886719 160.39062 C 63.490339 159.29657 63.792969 158.02486 63.792969 156.57617 L 63.792969 154.48242 C 63.792969 153.58454 63.664736 152.75204 63.408203 151.98242 C 63.191951 151.30745 62.945362 150.77408 62.677734 150.33789 z M 195.95117 154.72266 L 195.95117 156.57617 C 195.95117 157.47406 196.07718 158.31268 196.32617 159.08984 C 196.58271 159.86701 196.87282 160.48505 197.19727 160.94531 C 197.37835 161.20185 197.62006 161.42465 197.92188 161.61328 C 198.35194 161.88491 198.8376 162.02148 199.38086 162.02148 C 199.64277 162.02148 199.89089 161.98877 200.125 161.92188 L 195.95117 154.72266 z M 74.261719 177.0625 C 74.827612 177.0625 75.355257 177.17599 75.845703 177.40234 C 76.336143 177.62116 76.756436 177.93018 77.103516 178.33008 C 77.329876 178.58662 77.569632 178.99021 77.826172 179.54102 C 78.082712 180.09182 78.271851 180.59416 78.392578 181.04688 C 78.558571 181.69576 78.642578 182.45678 78.642578 183.33203 L 78.642578 185.6875 C 78.642578 187.73227 78.154979 189.35082 77.181641 190.54297 C 76.419567 191.47858 75.456895 191.94531 74.294922 191.94531 C 73.736575 191.94531 73.208923 191.83182 72.710938 191.60547 C 72.220498 191.38666 71.802165 191.07763 71.455078 190.67773 C 71.236265 190.42874 70.994555 190.02932 70.730469 189.47852 C 70.473935 188.92771 70.288961 188.4212 70.175781 187.96094 C 70.002235 187.31204 69.916016 186.55521 69.916016 185.6875 L 69.916016 183.33203 C 69.916016 181.27971 70.40166 179.657 71.375 178.46484 C 72.137073 177.52924 73.099746 177.0625 74.261719 177.0625 z M 88.160156 177.0625 C 88.726049 177.0625 89.253701 177.17599 89.744141 177.40234 C 90.234581 177.62116 90.654867 177.93018 91.001953 178.33008 C 91.228313 178.58662 91.468076 178.99021 91.724609 179.54102 C 91.981149 180.09182 92.170289 180.59416 92.291016 181.04688 C 92.457009 181.69576 92.541016 182.45678 92.541016 183.33203 L 92.541016 185.6875 C 92.541016 187.73227 92.053418 189.35082 91.080078 190.54297 C 90.318005 191.47858 89.355326 191.94531 88.193359 191.94531 C 87.635006 191.94531 87.107362 191.83182 86.609375 191.60547 C 86.118928 191.38666 85.700596 191.07763 85.353516 190.67773 C 85.134702 190.42874 84.892986 190.02932 84.628906 189.47852 C 84.37236 188.92771 84.187392 188.4212 84.074219 187.96094 C 83.900679 187.31204 83.814453 186.55521 83.814453 185.6875 L 83.814453 183.33203 C 83.814453 181.27971 84.300098 179.657 85.273438 178.46484 C 86.035503 177.52924 86.998176 177.0625 88.160156 177.0625 z M 129.85547 177.0625 C 130.42136 177.0625 130.94901 177.17599 131.43945 177.40234 C 131.92989 177.62116 132.34823 177.93018 132.69531 178.33008 C 132.92167 178.58662 133.16338 178.99021 133.41992 179.54102 C 133.67646 180.09182 133.86561 180.59416 133.98633 181.04688 C 134.15232 181.69576 134.23633 182.45678 134.23633 183.33203 L 134.23633 185.6875 C 134.23633 187.73227 133.74873 189.35082 132.77539 190.54297 C 132.01332 191.47858 131.05065 191.94531 129.88867 191.94531 C 129.33032 191.94531 128.80267 191.83182 128.30469 191.60547 C 127.81425 191.38666 127.39591 191.07763 127.04883 190.67773 C 126.83001 190.42874 126.5883 190.02932 126.32422 189.47852 C 126.06768 188.92771 125.88271 188.4212 125.76953 187.96094 C 125.59599 187.31204 125.50977 186.55521 125.50977 185.6875 L 125.50977 183.33203 C 125.50977 181.27971 125.99541 179.657 126.96875 178.46484 C 127.73082 177.52924 128.6935 177.0625 129.85547 177.0625 z M 143.75391 177.0625 C 144.3198 177.0625 144.84745 177.17599 145.33789 177.40234 C 145.82834 177.62116 146.24667 177.93018 146.59375 178.33008 C 146.82011 178.58662 147.06182 178.99021 147.31836 179.54102 C 147.5749 180.09182 147.76405 180.59416 147.88477 181.04688 C 148.05077 181.69576 148.13477 182.45678 148.13477 183.33203 L 148.13477 185.6875 C 148.13477 187.73227 147.64717 189.35082 146.67383 190.54297 C 145.91175 191.47858 144.94908 191.94531 143.78711 191.94531 C 143.22876 191.94531 142.70112 191.83182 142.20312 191.60547 C 141.7127 191.38666 141.29435 191.07763 140.94727 190.67773 C 140.72845 190.42874 140.48674 190.02932 140.22266 189.47852 C 139.96612 188.92771 139.78115 188.4212 139.66797 187.96094 C 139.49443 187.31204 139.4082 186.55521 139.4082 185.6875 L 139.4082 183.33203 C 139.4082 181.27971 139.89385 179.657 140.86719 178.46484 C 141.62926 177.52924 142.59193 177.0625 143.75391 177.0625 z M 199.34766 177.0625 C 199.91355 177.0625 200.4412 177.17599 200.93164 177.40234 C 201.42208 177.62116 201.84041 177.93018 202.1875 178.33008 C 202.41386 178.58662 202.65558 178.99021 202.91211 179.54102 C 203.16865 180.09182 203.35779 180.59416 203.47852 181.04688 C 203.64451 181.69576 203.72656 182.45678 203.72656 183.33203 L 203.72656 185.6875 C 203.72656 187.73227 203.24092 189.35082 202.26758 190.54297 C 201.5055 191.47858 200.54283 191.94531 199.38086 191.94531 C 198.82251 191.94531 198.29485 191.83182 197.79688 191.60547 C 197.30643 191.38666 196.8881 191.07763 196.54102 190.67773 C 196.3222 190.42874 196.08049 190.02932 195.81641 189.47852 C 195.55986 188.92771 195.37489 188.4212 195.26172 187.96094 C 195.08818 187.31204 195.00195 186.55521 195.00195 185.6875 L 195.00195 183.33203 C 195.00195 181.27971 195.4876 179.657 196.46094 178.46484 C 197.223 177.52924 198.18568 177.0625 199.34766 177.0625 z M 60.849609 177.20898 L 60.849609 190.6543 L 64.109375 190.6543 C 64.335735 190.6543 64.497616 190.70047 64.595703 190.79102 C 64.69379 190.87402 64.744141 190.98751 64.744141 191.13086 C 64.744141 191.26668 64.69379 191.38016 64.595703 191.4707 C 64.497616 191.56125 64.335735 191.60547 64.109375 191.60547 L 56.640625 191.60547 C 56.414265 191.60547 56.25043 191.56125 56.152344 191.4707 C 56.054257 191.38016 56.005859 191.26668 56.005859 191.13086 C 56.005859 190.98751 56.054257 190.87402 56.152344 190.79102 C 56.25043 190.70047 56.414265 190.6543 56.640625 190.6543 L 59.900391 190.6543 L 59.900391 178.52148 L 56.798828 179.49609 C 56.647921 179.54136 56.53861 179.56445 56.470703 179.56445 C 56.357523 179.56445 56.25043 179.51828 56.152344 179.42773 C 56.061797 179.32964 56.017578 179.21616 56.017578 179.08789 C 56.017578 178.97471 56.055406 178.86957 56.130859 178.77148 C 56.191193 178.71115 56.315246 178.64606 56.503906 178.57812 L 60.849609 177.20898 z M 102.54492 177.20898 L 102.54492 190.6543 L 105.80469 190.6543 C 106.03105 190.6543 106.19293 190.70047 106.29102 190.79102 C 106.3891 190.87402 106.43945 190.98751 106.43945 191.13086 C 106.43945 191.26668 106.3891 191.38016 106.29102 191.4707 C 106.19293 191.56125 106.03105 191.60547 105.80469 191.60547 L 98.335938 191.60547 C 98.109578 191.60547 97.945743 191.56125 97.847656 191.4707 C 97.74957 191.38016 97.701172 191.26668 97.701172 191.13086 C 97.701172 190.98751 97.74957 190.87402 97.847656 190.79102 C 97.945743 190.70047 98.109578 190.6543 98.335938 190.6543 L 101.59375 190.6543 L 101.59375 178.52148 L 98.494141 179.49609 C 98.343234 179.54136 98.233922 179.56445 98.166016 179.56445 C 98.052836 179.56445 97.945743 179.51828 97.847656 179.42773 C 97.757116 179.32964 97.712891 179.21616 97.712891 179.08789 C 97.712891 178.97471 97.750725 178.86957 97.826172 178.77148 C 97.886505 178.71115 98.010559 178.64606 98.199219 178.57812 L 102.54492 177.20898 z M 116.44336 177.20898 L 116.44336 190.6543 L 119.70312 190.6543 C 119.92948 190.6543 120.09137 190.70047 120.18945 190.79102 C 120.28755 190.87402 120.33789 190.98751 120.33789 191.13086 C 120.33789 191.26668 120.28755 191.38016 120.18945 191.4707 C 120.09137 191.56125 119.92948 191.60547 119.70312 191.60547 L 112.23438 191.60547 C 112.00802 191.60547 111.84419 191.56125 111.74609 191.4707 C 111.64801 191.38016 111.59961 191.26668 111.59961 191.13086 C 111.59961 190.98751 111.64801 190.87402 111.74609 190.79102 C 111.84419 190.70047 112.00802 190.6543 112.23438 190.6543 L 115.49219 190.6543 L 115.49219 178.52148 L 112.39258 179.49609 C 112.24168 179.54136 112.13236 179.56445 112.06445 179.56445 C 111.95127 179.56445 111.84419 179.51828 111.74609 179.42773 C 111.65555 179.32964 111.61133 179.21616 111.61133 179.08789 C 111.61133 178.97471 111.64916 178.86957 111.72461 178.77148 C 111.78494 178.71115 111.909 178.64606 112.09766 178.57812 L 116.44336 177.20898 z M 158.13867 177.20898 L 158.13867 190.6543 L 161.39844 190.6543 C 161.6248 190.6543 161.78667 190.70047 161.88477 190.79102 C 161.98285 190.87402 162.03125 190.98751 162.03125 191.13086 C 162.03125 191.26668 161.98285 191.38016 161.88477 191.4707 C 161.78667 191.56125 161.6248 191.60547 161.39844 191.60547 L 153.92773 191.60547 C 153.70137 191.60547 153.53949 191.56125 153.44141 191.4707 C 153.34331 191.38016 153.29492 191.26668 153.29492 191.13086 C 153.29492 190.98751 153.34331 190.87402 153.44141 190.79102 C 153.53949 190.70047 153.70137 190.6543 153.92773 190.6543 L 157.1875 190.6543 L 157.1875 178.52148 L 154.08789 179.49609 C 153.93698 179.54136 153.82767 179.56445 153.75977 179.56445 C 153.64659 179.56445 153.53949 179.51828 153.44141 179.42773 C 153.35086 179.32964 153.30664 179.21616 153.30664 179.08789 C 153.30664 178.97471 153.34447 178.86957 153.41992 178.77148 C 153.48026 178.71115 153.60431 178.64606 153.79297 178.57812 L 158.13867 177.20898 z M 172.03711 177.20898 L 172.03711 190.6543 L 175.29688 190.6543 C 175.52322 190.6543 175.68512 190.70047 175.7832 190.79102 C 175.88129 190.87402 175.92969 190.98751 175.92969 191.13086 C 175.92969 191.26668 175.88129 191.38016 175.7832 191.4707 C 175.68512 191.56125 175.52322 191.60547 175.29688 191.60547 L 167.82617 191.60547 C 167.59981 191.60547 167.43793 191.56125 167.33984 191.4707 C 167.24175 191.38016 167.19336 191.26668 167.19336 191.13086 C 167.19336 190.98751 167.24175 190.87402 167.33984 190.79102 C 167.43793 190.70047 167.59981 190.6543 167.82617 190.6543 L 171.08594 190.6543 L 171.08594 178.52148 L 167.98633 179.49609 C 167.83542 179.54136 167.72416 179.56445 167.65625 179.56445 C 167.54307 179.56445 167.43793 179.51828 167.33984 179.42773 C 167.2493 179.32964 167.20508 179.21616 167.20508 179.08789 C 167.20508 178.97471 167.24291 178.86957 167.31836 178.77148 C 167.37876 178.71115 167.50281 178.64606 167.69141 178.57812 L 172.03711 177.20898 z M 185.93555 177.20898 L 185.93555 190.6543 L 189.19531 190.6543 C 189.42167 190.6543 189.58355 190.70047 189.68164 190.79102 C 189.77973 190.87402 189.82813 190.98751 189.82812 191.13086 C 189.82812 191.26668 189.77973 191.38016 189.68164 191.4707 C 189.58355 191.56125 189.42167 191.60547 189.19531 191.60547 L 181.72461 191.60547 C 181.49825 191.60547 181.33637 191.56125 181.23828 191.4707 C 181.14019 191.38016 181.0918 191.26668 181.0918 191.13086 C 181.0918 190.98751 181.14019 190.87402 181.23828 190.79102 C 181.33637 190.70047 181.49825 190.6543 181.72461 190.6543 L 184.98438 190.6543 L 184.98438 178.52148 L 181.88477 179.49609 C 181.73386 179.54136 181.62259 179.56445 181.55469 179.56445 C 181.44151 179.56445 181.33637 179.51828 181.23828 179.42773 C 181.14773 179.32964 181.10352 179.21616 181.10352 179.08789 C 181.10352 178.97471 181.14134 178.86957 181.2168 178.77148 C 181.2772 178.71115 181.40125 178.64606 181.58984 178.57812 L 185.93555 177.20898 z M 74.273438 178.02539 C 73.209558 178.02539 72.375111 178.56778 71.771484 179.6543 C 71.167864 180.74082 70.867188 182.00834 70.867188 183.45703 L 70.867188 185.55078 C 70.867188 186.44867 70.991241 187.28534 71.240234 188.0625 C 71.496774 188.83966 71.786882 189.45966 72.111328 189.91992 C 72.292415 190.17646 72.534131 190.39926 72.835938 190.58789 C 73.266016 190.85952 73.751662 190.99414 74.294922 190.99414 C 75.351262 190.99414 76.18153 190.45175 76.785156 189.36523 C 77.388776 188.27117 77.691406 186.99947 77.691406 185.55078 L 77.691406 183.45703 C 77.691406 182.55914 77.563181 181.72469 77.306641 180.95508 C 77.057647 180.17791 76.773938 179.55987 76.457031 179.09961 C 76.268405 178.83552 76.02447 178.60856 75.722656 178.41992 C 75.292576 178.15584 74.80915 178.02539 74.273438 178.02539 z M 88.171875 178.02539 C 87.107995 178.02539 86.273548 178.56778 85.669922 179.6543 C 85.066302 180.74082 84.765625 182.00834 84.765625 183.45703 L 84.765625 185.55078 C 84.765625 186.44867 84.889679 187.28534 85.138672 188.0625 C 85.395212 188.83966 85.685319 189.45966 86.009766 189.91992 C 86.190852 190.17646 86.432562 190.39926 86.734375 190.58789 C 87.164455 190.85952 87.650099 190.99414 88.193359 190.99414 C 89.249693 190.99414 90.079974 190.45175 90.683594 189.36523 C 91.28722 188.27117 91.589844 186.99947 91.589844 185.55078 L 91.589844 183.45703 C 91.589844 182.55914 91.461618 181.72469 91.205078 180.95508 C 90.956085 180.17791 90.672369 179.55987 90.355469 179.09961 C 90.166835 178.83552 89.922907 178.60856 89.621094 178.41992 C 89.191014 178.15584 88.707588 178.02539 88.171875 178.02539 z M 129.86719 178.02539 C 128.80331 178.02539 127.96885 178.56778 127.36523 179.6543 C 126.76161 180.74082 126.46094 182.00834 126.46094 183.45703 L 126.46094 185.55078 C 126.46094 186.44867 126.58499 187.28534 126.83398 188.0625 C 127.09052 188.83966 127.38063 189.45966 127.70508 189.91992 C 127.88616 190.17646 128.12787 190.39926 128.42969 190.58789 C 128.85977 190.85952 129.34541 190.99414 129.88867 190.99414 C 130.94501 190.99414 131.77529 190.45175 132.37891 189.36523 C 132.98253 188.27117 133.28516 186.99947 133.28516 185.55078 L 133.28516 183.45703 C 133.28516 182.55914 133.15692 181.72469 132.90039 180.95508 C 132.6514 180.17791 132.36769 179.55987 132.05078 179.09961 C 131.86215 178.83552 131.61821 178.60856 131.31641 178.41992 C 130.88633 178.15584 130.40291 178.02539 129.86719 178.02539 z M 143.76562 178.02539 C 142.70175 178.02539 141.86729 178.56778 141.26367 179.6543 C 140.66005 180.74082 140.35938 182.00834 140.35938 183.45703 L 140.35938 185.55078 C 140.35937 186.44867 140.48342 187.28534 140.73242 188.0625 C 140.98896 188.83966 141.27906 189.45966 141.60352 189.91992 C 141.7846 190.17646 142.02633 190.39926 142.32812 190.58789 C 142.7582 190.85952 143.24385 190.99414 143.78711 190.99414 C 144.84345 190.99414 145.67372 190.45175 146.27734 189.36523 C 146.88096 188.27117 147.18359 186.99947 147.18359 185.55078 L 147.18359 183.45703 C 147.18359 182.55914 147.05537 181.72469 146.79883 180.95508 C 146.54983 180.17791 146.26612 179.55987 145.94922 179.09961 C 145.76059 178.83552 145.5147 178.60856 145.21289 178.41992 C 144.78281 178.15584 144.30134 178.02539 143.76562 178.02539 z M 199.35938 178.02539 C 198.2955 178.02539 197.46105 178.56778 196.85742 179.6543 C 196.2538 180.74082 195.95117 182.00834 195.95117 183.45703 L 195.95117 185.55078 C 195.95117 186.44867 196.07718 187.28534 196.32617 188.0625 C 196.58271 188.83966 196.87282 189.45966 197.19727 189.91992 C 197.37835 190.17646 197.62006 190.39926 197.92188 190.58789 C 198.35194 190.85952 198.8376 190.99414 199.38086 190.99414 C 200.43719 190.99414 201.26747 190.45175 201.87109 189.36523 C 202.47472 188.27117 202.77734 186.99947 202.77734 185.55078 L 202.77734 183.45703 C 202.77734 182.55914 202.64912 181.72469 202.39258 180.95508 C 202.14358 180.17791 201.85987 179.55987 201.54297 179.09961 C 201.35434 178.83552 201.10845 178.60856 200.80664 178.41992 C 200.37656 178.15584 199.89508 178.02539 199.35938 178.02539 z M 210.60156 179.98633 C 210.10991 180.99867 209.84961 182.14977 209.84961 183.45703 L 209.84961 185.55078 C 209.84961 186.44867 209.97562 187.28534 210.22461 188.0625 C 210.48115 188.83966 210.77126 189.45966 211.0957 189.91992 C 211.27679 190.17646 211.5185 190.39926 211.82031 190.58789 C 212.25039 190.85952 212.73604 190.99414 213.2793 190.99414 C 214.33564 190.99414 215.16591 190.45175 215.76953 189.36523 C 215.81507 189.28269 215.84656 189.19199 215.88867 189.10742 L 210.60156 179.98633 z M 46.464844 206.03711 C 47.030737 206.03711 47.558382 206.14864 48.048828 206.375 C 48.539268 206.59381 48.959561 206.90478 49.306641 207.30469 C 49.533001 207.56122 49.772757 207.96483 50.029297 208.51562 C 50.285837 209.06643 50.474983 209.56682 50.595703 210.01953 C 50.761703 210.66843 50.845703 211.43139 50.845703 212.30664 L 50.845703 214.66016 C 50.845703 216.70492 50.358104 218.32348 49.384766 219.51562 C 48.622692 220.45124 47.661973 220.91992 46.5 220.91992 C 45.941653 220.91992 45.412049 220.80644 44.914062 220.58008 C 44.423617 220.36126 44.005283 220.05224 43.658203 219.65234 C 43.43939 219.40335 43.19768 219.00197 42.933594 218.45117 C 42.677054 217.90037 42.492086 217.39581 42.378906 216.93555 C 42.205366 216.28666 42.119141 215.52786 42.119141 214.66016 L 42.119141 212.30664 C 42.119141 210.25433 42.604785 208.63161 43.578125 207.43945 C 44.340198 206.50384 45.302871 206.03711 46.464844 206.03711 z M 74.261719 206.03711 C 74.827612 206.03711 75.355257 206.14864 75.845703 206.375 C 76.336143 206.59381 76.756436 206.90478 77.103516 207.30469 C 77.329876 207.56122 77.569632 207.96483 77.826172 208.51562 C 78.082712 209.06643 78.271851 209.56682 78.392578 210.01953 C 78.558571 210.66843 78.642578 211.43139 78.642578 212.30664 L 78.642578 214.66016 C 78.642578 216.70492 78.154979 218.32348 77.181641 219.51562 C 76.419567 220.45124 75.456895 220.91992 74.294922 220.91992 C 73.736575 220.91992 73.208923 220.80644 72.710938 220.58008 C 72.220498 220.36126 71.802165 220.05224 71.455078 219.65234 C 71.236265 219.40335 70.994555 219.00197 70.730469 218.45117 C 70.473935 217.90037 70.288961 217.39581 70.175781 216.93555 C 70.002235 216.28666 69.916016 215.52786 69.916016 214.66016 L 69.916016 212.30664 C 69.916016 210.25433 70.40166 208.63161 71.375 207.43945 C 72.137073 206.50384 73.099746 206.03711 74.261719 206.03711 z M 88.160156 206.03711 C 88.726049 206.03711 89.253701 206.14864 89.744141 206.375 C 90.234581 206.59381 90.654867 206.90478 91.001953 207.30469 C 91.228313 207.56122 91.468076 207.96483 91.724609 208.51562 C 91.981149 209.06643 92.170289 209.56682 92.291016 210.01953 C 92.457009 210.66843 92.541016 211.43139 92.541016 212.30664 L 92.541016 214.66016 C 92.541016 216.70492 92.053418 218.32348 91.080078 219.51562 C 90.318005 220.45124 89.355326 220.91992 88.193359 220.91992 C 87.635006 220.91992 87.107362 220.80644 86.609375 220.58008 C 86.118928 220.36126 85.700596 220.05224 85.353516 219.65234 C 85.134702 219.40335 84.892986 219.00197 84.628906 218.45117 C 84.37236 217.90037 84.187392 217.39581 84.074219 216.93555 C 83.900679 216.28666 83.814453 215.52786 83.814453 214.66016 L 83.814453 212.30664 C 83.814453 210.25433 84.300098 208.63161 85.273438 207.43945 C 86.035503 206.50384 86.998176 206.03711 88.160156 206.03711 z M 115.95703 206.03711 C 116.52292 206.03711 117.05058 206.14864 117.54102 206.375 C 118.03146 206.59381 118.4498 206.90478 118.79688 207.30469 C 119.02322 207.56122 119.26494 207.96483 119.52148 208.51562 C 119.77802 209.06643 119.96716 209.56682 120.08789 210.01953 C 120.25389 210.66843 120.33789 211.43139 120.33789 212.30664 L 120.33789 214.66016 C 120.33789 216.70492 119.85029 218.32348 118.87695 219.51562 C 118.11488 220.45124 117.15221 220.91992 115.99023 220.91992 C 115.43189 220.91992 114.90424 220.80644 114.40625 220.58008 C 113.91581 220.36126 113.49747 220.05224 113.15039 219.65234 C 112.93158 219.40335 112.68987 219.00197 112.42578 218.45117 C 112.16924 217.90037 111.98427 217.39581 111.87109 216.93555 C 111.69755 216.28666 111.61133 215.52786 111.61133 214.66016 L 111.61133 212.30664 C 111.61133 210.25433 112.09697 208.63161 113.07031 207.43945 C 113.83239 206.50384 114.79506 206.03711 115.95703 206.03711 z M 129.85547 206.03711 C 130.42136 206.03711 130.94901 206.14864 131.43945 206.375 C 131.92989 206.59381 132.34823 206.90478 132.69531 207.30469 C 132.92167 207.56122 133.16338 207.96483 133.41992 208.51562 C 133.67646 209.06643 133.86561 209.56682 133.98633 210.01953 C 134.15232 210.66843 134.23633 211.43139 134.23633 212.30664 L 134.23633 214.66016 C 134.23633 216.70492 133.74873 218.32348 132.77539 219.51562 C 132.01332 220.45124 131.05065 220.91992 129.88867 220.91992 C 129.33032 220.91992 128.80267 220.80644 128.30469 220.58008 C 127.81425 220.36126 127.39591 220.05224 127.04883 219.65234 C 126.83001 219.40335 126.5883 219.00197 126.32422 218.45117 C 126.06768 217.90037 125.88271 217.39581 125.76953 216.93555 C 125.59599 216.28666 125.50977 215.52786 125.50977 214.66016 L 125.50977 212.30664 C 125.50977 210.25433 125.99541 208.63161 126.96875 207.43945 C 127.73082 206.50384 128.6935 206.03711 129.85547 206.03711 z M 157.65234 206.03711 C 158.21824 206.03711 158.74588 206.14864 159.23633 206.375 C 159.72677 206.59381 160.14511 206.90478 160.49219 207.30469 C 160.71855 207.56122 160.96026 207.96483 161.2168 208.51562 C 161.47334 209.06643 161.66248 209.56682 161.7832 210.01953 C 161.9492 210.66843 162.03125 211.43139 162.03125 212.30664 L 162.03125 214.66016 C 162.03125 216.70492 161.54561 218.32348 160.57227 219.51562 C 159.81019 220.45124 158.84752 220.91992 157.68555 220.91992 C 157.1272 220.91992 156.59955 220.80644 156.10156 220.58008 C 155.61112 220.36126 155.19278 220.05224 154.8457 219.65234 C 154.62689 219.40335 154.38518 219.00197 154.12109 218.45117 C 153.86455 217.90037 153.67959 217.39581 153.56641 216.93555 C 153.39287 216.28666 153.30664 215.52786 153.30664 214.66016 L 153.30664 212.30664 C 153.30664 210.25433 153.7923 208.63161 154.76562 207.43945 C 155.5277 206.50384 156.49037 206.03711 157.65234 206.03711 z M 199.34766 206.03711 C 199.91355 206.03711 200.4412 206.14864 200.93164 206.375 C 201.42208 206.59381 201.84041 206.90478 202.1875 207.30469 C 202.41386 207.56122 202.65558 207.96483 202.91211 208.51562 C 203.16865 209.06643 203.35779 209.56682 203.47852 210.01953 C 203.64451 210.66843 203.72656 211.43139 203.72656 212.30664 L 203.72656 214.66016 C 203.72656 216.70492 203.24092 218.32348 202.26758 219.51562 C 201.5055 220.45124 200.54283 220.91992 199.38086 220.91992 C 198.82251 220.91992 198.29485 220.80644 197.79688 220.58008 C 197.30643 220.36126 196.8881 220.05224 196.54102 219.65234 C 196.3222 219.40335 196.08049 219.00197 195.81641 218.45117 C 195.55986 217.90037 195.37489 217.39581 195.26172 216.93555 C 195.08818 216.28666 195.00195 215.52786 195.00195 214.66016 L 195.00195 212.30664 C 195.00195 210.25433 195.4876 208.63161 196.46094 207.43945 C 197.223 206.50384 198.18568 206.03711 199.34766 206.03711 z M 213.24609 206.03711 C 213.81199 206.03711 214.33963 206.14864 214.83008 206.375 C 215.32052 206.59381 215.73886 206.90478 216.08594 207.30469 C 216.3123 207.56122 216.55401 207.96483 216.81055 208.51562 C 217.06709 209.06643 217.25623 209.56682 217.37695 210.01953 C 217.54295 210.66843 217.625 211.43139 217.625 212.30664 L 217.625 214.66016 C 217.625 216.70492 217.13936 218.32348 216.16602 219.51562 C 215.40395 220.45124 214.44127 220.91992 213.2793 220.91992 C 212.72094 220.91992 212.1933 220.80644 211.69531 220.58008 C 211.20487 220.36126 210.78654 220.05224 210.43945 219.65234 C 210.22064 219.40335 209.97892 219.00197 209.71484 218.45117 C 209.4583 217.90037 209.27334 217.39581 209.16016 216.93555 C 208.98662 216.28666 208.90039 215.52786 208.90039 214.66016 L 208.90039 212.30664 C 208.90039 210.25433 209.38604 208.63161 210.35938 207.43945 C 211.12144 206.50384 212.08413 206.03711 213.24609 206.03711 z M 60.849609 206.18359 L 60.849609 219.62891 L 64.109375 219.62891 C 64.335735 219.62891 64.497616 219.67509 64.595703 219.76562 C 64.69379 219.84862 64.744141 219.96016 64.744141 220.10352 C 64.744141 220.23933 64.69379 220.35281 64.595703 220.44336 C 64.497616 220.5339 64.335735 220.58008 64.109375 220.58008 L 56.640625 220.58008 C 56.414265 220.58008 56.25043 220.5339 56.152344 220.44336 C 56.054257 220.35281 56.005859 220.23933 56.005859 220.10352 C 56.005859 219.96016 56.054257 219.84862 56.152344 219.76562 C 56.25043 219.67509 56.414265 219.62891 56.640625 219.62891 L 59.900391 219.62891 L 59.900391 207.49609 L 56.798828 208.46875 C 56.647921 208.51402 56.53861 208.53711 56.470703 208.53711 C 56.357523 208.53711 56.25043 208.49289 56.152344 208.40234 C 56.061797 208.30426 56.017578 208.19077 56.017578 208.0625 C 56.017578 207.94932 56.055406 207.84417 56.130859 207.74609 C 56.191193 207.68576 56.315246 207.62067 56.503906 207.55273 L 60.849609 206.18359 z M 102.54492 206.18359 L 102.54492 219.62891 L 105.80469 219.62891 C 106.03105 219.62891 106.19293 219.67509 106.29102 219.76562 C 106.3891 219.84862 106.43945 219.96016 106.43945 220.10352 C 106.43945 220.23933 106.3891 220.35281 106.29102 220.44336 C 106.19293 220.5339 106.03105 220.58008 105.80469 220.58008 L 98.335938 220.58008 C 98.109578 220.58008 97.945743 220.5339 97.847656 220.44336 C 97.74957 220.35281 97.701172 220.23933 97.701172 220.10352 C 97.701172 219.96016 97.74957 219.84862 97.847656 219.76562 C 97.945743 219.67509 98.109578 219.62891 98.335938 219.62891 L 101.59375 219.62891 L 101.59375 207.49609 L 98.494141 208.46875 C 98.343234 208.51402 98.233922 208.53711 98.166016 208.53711 C 98.052836 208.53711 97.945743 208.49289 97.847656 208.40234 C 97.757116 208.30426 97.712891 208.19077 97.712891 208.0625 C 97.712891 207.94932 97.750725 207.84417 97.826172 207.74609 C 97.886505 207.68576 98.010559 207.62067 98.199219 207.55273 L 102.54492 206.18359 z M 144.24023 206.18359 L 144.24023 219.62891 L 147.5 219.62891 C 147.72635 219.62891 147.88824 219.67509 147.98633 219.76562 C 148.08442 219.84862 148.13477 219.96016 148.13477 220.10352 C 148.13477 220.23933 148.08442 220.35281 147.98633 220.44336 C 147.88824 220.5339 147.72635 220.58008 147.5 220.58008 L 140.0293 220.58008 C 139.80294 220.58008 139.64106 220.5339 139.54297 220.44336 C 139.44488 220.35281 139.39648 220.23933 139.39648 220.10352 C 139.39648 219.96016 139.44488 219.84862 139.54297 219.76562 C 139.64106 219.67509 139.80294 219.62891 140.0293 219.62891 L 143.28906 219.62891 L 143.28906 207.49609 L 140.18945 208.46875 C 140.03855 208.51402 139.92923 208.53711 139.86133 208.53711 C 139.74815 208.53711 139.64106 208.49289 139.54297 208.40234 C 139.45242 208.30426 139.4082 208.19077 139.4082 208.0625 C 139.4082 207.94932 139.44603 207.84417 139.52148 207.74609 C 139.58182 207.68576 139.70587 207.62067 139.89453 207.55273 L 144.24023 206.18359 z M 172.03711 206.18359 L 172.03711 219.62891 L 175.29688 219.62891 C 175.52322 219.62891 175.68512 219.67509 175.7832 219.76562 C 175.88129 219.84862 175.92969 219.96016 175.92969 220.10352 C 175.92969 220.23933 175.88129 220.35281 175.7832 220.44336 C 175.68512 220.5339 175.52322 220.58008 175.29688 220.58008 L 167.82617 220.58008 C 167.59981 220.58008 167.43793 220.5339 167.33984 220.44336 C 167.24175 220.35281 167.19336 220.23933 167.19336 220.10352 C 167.19336 219.96016 167.24175 219.84862 167.33984 219.76562 C 167.43793 219.67509 167.59981 219.62891 167.82617 219.62891 L 171.08594 219.62891 L 171.08594 207.49609 L 167.98633 208.46875 C 167.83542 208.51402 167.72416 208.53711 167.65625 208.53711 C 167.54307 208.53711 167.43793 208.49289 167.33984 208.40234 C 167.2493 208.30426 167.20508 208.19077 167.20508 208.0625 C 167.20508 207.94932 167.24291 207.84417 167.31836 207.74609 C 167.37876 207.68576 167.50281 207.62067 167.69141 207.55273 L 172.03711 206.18359 z M 185.93555 206.18359 L 185.93555 219.62891 L 189.19531 219.62891 C 189.42167 219.62891 189.58355 219.67509 189.68164 219.76562 C 189.77973 219.84862 189.82813 219.96016 189.82812 220.10352 C 189.82812 220.23933 189.77973 220.35281 189.68164 220.44336 C 189.58355 220.5339 189.42167 220.58008 189.19531 220.58008 L 181.72461 220.58008 C 181.49825 220.58008 181.33637 220.5339 181.23828 220.44336 C 181.14019 220.35281 181.0918 220.23933 181.0918 220.10352 C 181.0918 219.96016 181.14019 219.84862 181.23828 219.76562 C 181.33637 219.67509 181.49825 219.62891 181.72461 219.62891 L 184.98438 219.62891 L 184.98438 207.49609 L 181.88477 208.46875 C 181.73386 208.51402 181.62259 208.53711 181.55469 208.53711 C 181.44151 208.53711 181.33637 208.49289 181.23828 208.40234 C 181.14773 208.30426 181.10352 208.19077 181.10352 208.0625 C 181.10352 207.94932 181.14134 207.84417 181.2168 207.74609 C 181.2772 207.68576 181.40125 207.62067 181.58984 207.55273 L 185.93555 206.18359 z M 46.476562 206.99805 C 45.412677 206.99805 44.578229 207.54239 43.974609 208.62891 C 43.370989 209.71543 43.070312 210.98295 43.070312 212.43164 L 43.070312 214.52539 C 43.070312 215.42328 43.194366 216.25995 43.443359 217.03711 C 43.699899 217.81428 43.990007 218.43232 44.314453 218.89258 C 44.49554 219.14912 44.737257 219.37191 45.039062 219.56055 C 45.469142 219.83218 45.95674 219.96875 46.5 219.96875 C 47.55634 219.96875 48.384661 219.42441 48.988281 218.33789 C 49.591901 217.24382 49.894531 215.97408 49.894531 214.52539 L 49.894531 212.43164 C 49.894531 211.53375 49.766299 210.69931 49.509766 209.92969 C 49.260766 209.15253 48.977056 208.53449 48.660156 208.07422 C 48.471523 207.81014 48.227588 207.58316 47.925781 207.39453 C 47.495701 207.13044 47.012276 206.99805 46.476562 206.99805 z M 74.273438 206.99805 C 73.209558 206.99805 72.375111 207.54239 71.771484 208.62891 C 71.167864 209.71543 70.867188 210.98295 70.867188 212.43164 L 70.867188 214.52539 C 70.867188 215.42328 70.991241 216.25995 71.240234 217.03711 C 71.496774 217.81428 71.786882 218.43232 72.111328 218.89258 C 72.292415 219.14912 72.534131 219.37191 72.835938 219.56055 C 73.266016 219.83218 73.751662 219.96875 74.294922 219.96875 C 75.351262 219.96875 76.18153 219.42441 76.785156 218.33789 C 77.388776 217.24382 77.691406 215.97408 77.691406 214.52539 L 77.691406 212.43164 C 77.691406 211.53375 77.563181 210.69931 77.306641 209.92969 C 77.057647 209.15253 76.773938 208.53449 76.457031 208.07422 C 76.268405 207.81014 76.02447 207.58316 75.722656 207.39453 C 75.292576 207.13044 74.80915 206.99805 74.273438 206.99805 z M 88.171875 206.99805 C 87.107995 206.99805 86.273548 207.54239 85.669922 208.62891 C 85.066302 209.71543 84.765625 210.98295 84.765625 212.43164 L 84.765625 214.52539 C 84.765625 215.42328 84.889679 216.25995 85.138672 217.03711 C 85.395212 217.81428 85.685319 218.43232 86.009766 218.89258 C 86.190852 219.14912 86.432562 219.37191 86.734375 219.56055 C 87.164455 219.83218 87.650099 219.96875 88.193359 219.96875 C 89.249693 219.96875 90.079974 219.42441 90.683594 218.33789 C 91.28722 217.24382 91.589844 215.97408 91.589844 214.52539 L 91.589844 212.43164 C 91.589844 211.53375 91.461618 210.69931 91.205078 209.92969 C 90.956085 209.15253 90.672369 208.53449 90.355469 208.07422 C 90.166835 207.81014 89.922907 207.58316 89.621094 207.39453 C 89.191014 207.13044 88.707588 206.99805 88.171875 206.99805 z M 115.96875 206.99805 C 114.90487 206.99805 114.07042 207.54239 113.4668 208.62891 C 112.86317 209.71543 112.5625 210.98295 112.5625 212.43164 L 112.5625 214.52539 C 112.5625 215.42328 112.68655 216.25995 112.93555 217.03711 C 113.19209 217.81428 113.48219 218.43232 113.80664 218.89258 C 113.98773 219.14912 114.22944 219.37191 114.53125 219.56055 C 114.96133 219.83218 115.44697 219.96875 115.99023 219.96875 C 117.04657 219.96875 117.87684 219.42441 118.48047 218.33789 C 119.08409 217.24382 119.38672 215.97408 119.38672 214.52539 L 119.38672 212.43164 C 119.38672 211.53375 119.25849 210.69931 119.00195 209.92969 C 118.75296 209.15253 118.46924 208.53449 118.15234 208.07422 C 117.96371 207.81014 117.71978 207.58316 117.41797 207.39453 C 116.98789 207.13044 116.50447 206.99805 115.96875 206.99805 z M 129.86719 206.99805 C 128.80331 206.99805 127.96885 207.54239 127.36523 208.62891 C 126.76161 209.71543 126.46094 210.98295 126.46094 212.43164 L 126.46094 214.52539 C 126.46094 215.42328 126.58499 216.25995 126.83398 217.03711 C 127.09052 217.81428 127.38063 218.43232 127.70508 218.89258 C 127.88616 219.14912 128.12787 219.37191 128.42969 219.56055 C 128.85977 219.83218 129.34541 219.96875 129.88867 219.96875 C 130.94501 219.96875 131.77529 219.42441 132.37891 218.33789 C 132.98253 217.24382 133.28516 215.97408 133.28516 214.52539 L 133.28516 212.43164 C 133.28516 211.53375 133.15692 210.69931 132.90039 209.92969 C 132.6514 209.15253 132.36769 208.53449 132.05078 208.07422 C 131.86215 207.81014 131.61821 207.58316 131.31641 207.39453 C 130.88633 207.13044 130.40291 206.99805 129.86719 206.99805 z M 157.66406 206.99805 C 156.60018 206.99805 155.76573 207.54239 155.16211 208.62891 C 154.55849 209.71543 154.25586 210.98295 154.25586 212.43164 L 154.25586 214.52539 C 154.25586 215.42328 154.38187 216.25995 154.63086 217.03711 C 154.8874 217.81428 155.17751 218.43232 155.50195 218.89258 C 155.68304 219.14912 155.92475 219.37191 156.22656 219.56055 C 156.65664 219.83218 157.14229 219.96875 157.68555 219.96875 C 158.74189 219.96875 159.57216 219.42441 160.17578 218.33789 C 160.77941 217.24382 161.08203 215.97408 161.08203 214.52539 L 161.08203 212.43164 C 161.08203 211.53375 160.95381 210.69931 160.69727 209.92969 C 160.44827 209.15253 160.16456 208.53449 159.84766 208.07422 C 159.65902 207.81014 159.41313 207.58316 159.11133 207.39453 C 158.68125 207.13044 158.19978 206.99805 157.66406 206.99805 z M 199.35938 206.99805 C 198.2955 206.99805 197.46105 207.54239 196.85742 208.62891 C 196.2538 209.71543 195.95117 210.98295 195.95117 212.43164 L 195.95117 214.52539 C 195.95117 215.42328 196.07718 216.25995 196.32617 217.03711 C 196.58271 217.81428 196.87282 218.43232 197.19727 218.89258 C 197.37835 219.14912 197.62006 219.37191 197.92188 219.56055 C 198.35194 219.83218 198.8376 219.96875 199.38086 219.96875 C 200.43719 219.96875 201.26747 219.42441 201.87109 218.33789 C 202.47472 217.24382 202.77734 215.97408 202.77734 214.52539 L 202.77734 212.43164 C 202.77734 211.53375 202.64912 210.69931 202.39258 209.92969 C 202.14358 209.15253 201.85987 208.53449 201.54297 208.07422 C 201.35434 207.81014 201.10845 207.58316 200.80664 207.39453 C 200.37656 207.13044 199.89508 206.99805 199.35938 206.99805 z M 213.25781 206.99805 C 212.19393 206.99805 211.35948 207.54239 210.75586 208.62891 C 210.15223 209.71543 209.84961 210.98295 209.84961 212.43164 L 209.84961 214.52539 C 209.84961 215.42328 209.97562 216.25995 210.22461 217.03711 C 210.48115 217.81428 210.77126 218.43232 211.0957 218.89258 C 211.27679 219.14912 211.5185 219.37191 211.82031 219.56055 C 212.25039 219.83218 212.73604 219.96875 213.2793 219.96875 C 214.33564 219.96875 215.16591 219.42441 215.76953 218.33789 C 216.37315 217.24382 216.67578 215.97408 216.67578 214.52539 L 216.67578 212.43164 C 216.67578 211.53375 216.54756 210.69931 216.29102 209.92969 C 216.04202 209.15253 215.75831 208.53449 215.44141 208.07422 C 215.25277 207.81014 215.00689 207.58316 214.70508 207.39453 C 214.275 207.13044 213.79353 206.99805 213.25781 206.99805 z "
       id="polygon7"
       transform="translate(64.790055,45.98883)" />
    <g
       transform="matrix(0.28812005,0,0,0.28812005,117.92158,134.42481)"
       id="biohazard"
       style="fill:#02f54d;fill-opacity:1">
      <use
         height="1"
         width="1"
         y="0"
         x="0"
         id="use3341"
         xlink:href="#p-6"
         style="fill:#02f54d;fill-opacity:1" />
      <use
         height="1"
         width="1"
         y="0"
         x="0"
         id="use3343"
         transform="matrix(-0.5,0.8660254,-0.8660254,-0.5,615.1666,164.8334)"
         xlink:href="#p-6"
         style="fill:#02f54d;fill-opacity:1" />
      <use
         height="1"
         width="1"
         y="0"
         x="0"
         id="use3345"
         transform="matrix(-0.5,-0.8660254,0.8660254,-0.5,164.8334,615.1666)"
         xlink:href="#p-6"
         style="fill:#02f54d;fill-opacity:1" />
    </g>
  </g>
</svg>
